<svg xmlns="http://www.w3.org/2000/svg" width="512" height="512" viewBox="0 0 512 512" role="img" aria-labelledby="title desc">
  <title id="title">Treseko Community Gecko</title>
  <desc id="desc">Vector gecko mascot icon with balanced limbs and a cropped close-up composition.</desc>
  <defs>
    <linearGradient id="geckoBody" x1="16" y1="82" x2="421" y2="432" gradientUnits="userSpaceOnUse">
      <stop offset="0" stop-color="#05a3c8"/>
      <stop offset="0.52" stop-color="#0085ad"/>
      <stop offset="1" stop-color="#013a60"/>
    </linearGradient>
    <linearGradient id="geckoDark" x1="182" y1="224" x2="405" y2="420" gradientUnits="userSpaceOnUse">
      <stop offset="0" stop-color="#026f96"/>
      <stop offset="1" stop-color="#012f50"/>
    </linearGradient>
    <filter id="softShadow" x="-20%" y="-20%" width="140%" height="140%">
      <feDropShadow dx="0" dy="8" stdDeviation="10" flood-color="#062f49" flood-opacity="0.18"/>
    </filter>
  </defs>

  <rect width="512" height="512" rx="104" fill="#f8fafc"/>
  <g filter="url(#softShadow)">
    <path
      fill="url(#geckoBody)"
      d="M-76 172c63-18 124-32 185-39 31-55 79-84 143-83 60 1 105 30 135 87 8 15 18 27 31 38 21 18 23 43 4 63-23 24-59 31-108 20-46-10-88-28-126-54-26-18-48-23-66-15-17 7-32 22-46 45-32 52-79 87-140 104-54 15-99 12-136-8-25-13-36-40-25-66 13-31 63-62 149-92Z"
    />
    <path
      fill="#fff"
      d="M169 179c31 25 67 45 109 60 26 9 51 15 75 18-26 16-58 21-94 15-30-5-61-16-92-34l-69 111-43-14 62-108c23-17 40-33 52-48Z"
    />
    <path
      fill="url(#geckoDark)"
      d="M205 244c23 18 48 34 77 48 33 16 64 25 95 27 6-12 17-20 31-20 17 0 29 11 29 26 0 12-8 22-20 26 5 5 12 8 21 9 9 1 18 0 28-3 13-4 26 4 30 18s-4 27-18 31c-14 4-29 3-44-4 3 8 3 16 0 24-5 14-20 22-34 17s-21-20-16-34c3-8 9-14 17-17-29-8-59-22-88-42-45-30-80-65-108-102Z"
    />
    <path
      fill="url(#geckoBody)"
      d="M114 321c17 22 32 47 46 75 14-1 26 8 30 21 4 15-5 30-20 34-10 3-20 0-28-7-2 8-7 16-15 21-13 8-30 5-39-8-8-13-5-30 8-39 5-3 10-5 16-5l-42-70 44-22Z"
    />
    <path
      fill="#fff"
      d="M239 122c34-7 66-1 96 18 0 33-18 51-52 53-26 1-45-8-56-27-8-15-4-29 12-44Z"
    />
    <ellipse cx="286" cy="154" rx="20" ry="28" transform="rotate(-57 286 154)" fill="#063750"/>
    <circle cx="404" cy="200" r="8" fill="#fff"/>
  </g>
</svg>
