<svg xmlns="http://www.w3.org/2000/svg" width="720" height="520" viewBox="0 0 720 520" preserveAspectRatio="xMidYMid meet" role="img" aria-labelledby="title desc">
  <title id="title">Trazabilidad QA en Community Edition</title>
  <desc id="desc">Mockup sobrio de una interfaz SaaS con proyecto, build, caso, ejecucion y evidencia conectados.</desc>
  <rect width="720" height="520" rx="28" fill="#f8fafc"/>
  <rect x="44" y="42" width="632" height="436" rx="26" fill="#ffffff" stroke="#dbe3ef"/>

  <rect x="44" y="42" width="632" height="58" rx="26" fill="#0f172a"/>
  <rect x="44" y="74" width="632" height="26" fill="#0f172a"/>
  <circle cx="82" cy="71" r="8" fill="#22c55e"/>
  <circle cx="108" cy="71" r="8" fill="#f59e0b"/>
  <circle cx="134" cy="71" r="8" fill="#ef4444"/>
  <text x="184" y="77" fill="#e2e8f0" font-family="Inter, Arial, sans-serif" font-size="16" font-weight="800">Treseko Community</text>

  <rect x="72" y="128" width="156" height="300" rx="18" fill="#f1f5f9" stroke="#dbe3ef"/>
  <text x="94" y="164" fill="#0f172a" font-family="Inter, Arial, sans-serif" font-size="15" font-weight="800">Proyecto</text>
  <rect x="94" y="186" width="112" height="10" rx="5" fill="#94a3b8"/>
  <rect x="94" y="216" width="86" height="10" rx="5" fill="#cbd5e1"/>
  <rect x="94" y="246" width="102" height="10" rx="5" fill="#cbd5e1"/>
  <rect x="94" y="286" width="96" height="30" rx="10" fill="#dbeafe"/>
  <text x="112" y="306" fill="#1d4ed8" font-family="Inter, Arial, sans-serif" font-size="12" font-weight="800">Build actual</text>
  <rect x="94" y="338" width="86" height="10" rx="5" fill="#cbd5e1"/>
  <rect x="94" y="368" width="112" height="10" rx="5" fill="#cbd5e1"/>

  <rect x="258" y="128" width="390" height="98" rx="18" fill="#ffffff" stroke="#dbe3ef"/>
  <text x="286" y="162" fill="#0f172a" font-family="Inter, Arial, sans-serif" font-size="16" font-weight="800">Suite / Caso de prueba</text>
  <rect x="286" y="184" width="218" height="10" rx="5" fill="#cbd5e1"/>
  <rect x="538" y="158" width="80" height="30" rx="15" fill="#dcfce7"/>
  <text x="558" y="178" fill="#15803d" font-family="Inter, Arial, sans-serif" font-size="12" font-weight="800">Activo</text>

  <rect x="258" y="252" width="186" height="176" rx="18" fill="#ffffff" stroke="#dbe3ef"/>
  <text x="286" y="286" fill="#0f172a" font-family="Inter, Arial, sans-serif" font-size="15" font-weight="800">Ejecucion</text>
  <rect x="286" y="314" width="122" height="12" rx="6" fill="#bfdbfe"/>
  <rect x="286" y="344" width="92" height="12" rx="6" fill="#cbd5e1"/>
  <rect x="286" y="374" width="132" height="12" rx="6" fill="#cbd5e1"/>
  <circle cx="410" cy="286" r="14" fill="#22c55e"/>
  <path d="M402 286l6 6 12-16" fill="none" stroke="#ffffff" stroke-width="4" stroke-linecap="round" stroke-linejoin="round"/>

  <rect x="472" y="252" width="176" height="176" rx="18" fill="#ffffff" stroke="#dbe3ef"/>
  <text x="500" y="286" fill="#0f172a" font-family="Inter, Arial, sans-serif" font-size="15" font-weight="800">Evidencia</text>
  <rect x="500" y="314" width="112" height="12" rx="6" fill="#bae6fd"/>
  <rect x="500" y="344" width="86" height="12" rx="6" fill="#cbd5e1"/>
  <rect x="500" y="374" width="104" height="12" rx="6" fill="#cbd5e1"/>
  <rect x="500" y="402" width="78" height="20" rx="10" fill="#eef2ff"/>
  <text x="518" y="416" fill="#4338ca" font-family="Inter, Arial, sans-serif" font-size="11" font-weight="800">Adjunto</text>

  <path d="M444 340h28" stroke="#2563eb" stroke-width="4" stroke-linecap="round"/>
  <path d="M464 330l12 10-12 10" fill="none" stroke="#2563eb" stroke-width="4" stroke-linecap="round" stroke-linejoin="round"/>
</svg>
