<svg xmlns="http://www.w3.org/2000/svg" width="720" height="520" viewBox="0 0 720 520" preserveAspectRatio="xMidYMid meet" role="img" aria-labelledby="title desc">
  <title id="title">Metricas y reportes QA en Community Edition</title>
  <desc id="desc">Mockup sobrio de tablero de metricas, bugs, resultados y reporte ejecutivo.</desc>
  <rect width="720" height="520" rx="28" fill="#f8fafc"/>
  <rect x="44" y="42" width="632" height="436" rx="26" fill="#ffffff" stroke="#dbe3ef"/>

  <rect x="72" y="72" width="576" height="58" rx="18" fill="#0f172a"/>
  <text x="102" y="107" fill="#f8fafc" font-family="Inter, Arial, sans-serif" font-size="17" font-weight="800">Metricas de build</text>
  <rect x="504" y="86" width="106" height="30" rx="15" fill="#dcfce7"/>
  <text x="526" y="106" fill="#15803d" font-family="Inter, Arial, sans-serif" font-size="12" font-weight="800">Community</text>

  <g font-family="Inter, Arial, sans-serif">
    <rect x="72" y="156" width="132" height="82" rx="18" fill="#eff6ff" stroke="#bfdbfe"/>
    <text x="96" y="188" fill="#1d4ed8" font-size="12" font-weight="800">Cobertura</text>
    <text x="96" y="216" fill="#0f172a" font-size="28" font-weight="800">82%</text>

    <rect x="226" y="156" width="132" height="82" rx="18" fill="#f0fdf4" stroke="#bbf7d0"/>
    <text x="250" y="188" fill="#15803d" font-size="12" font-weight="800">Pasados</text>
    <text x="250" y="216" fill="#0f172a" font-size="28" font-weight="800">128</text>

    <rect x="380" y="156" width="132" height="82" rx="18" fill="#fff7ed" stroke="#fed7aa"/>
    <text x="404" y="188" fill="#c2410c" font-size="12" font-weight="800">Bloqueados</text>
    <text x="404" y="216" fill="#0f172a" font-size="28" font-weight="800">9</text>

    <rect x="534" y="156" width="114" height="82" rx="18" fill="#fef2f2" stroke="#fecaca"/>
    <text x="558" y="188" fill="#b91c1c" font-size="12" font-weight="800">Bugs</text>
    <text x="558" y="216" fill="#0f172a" font-size="28" font-weight="800">6</text>
  </g>

  <rect x="72" y="264" width="360" height="164" rx="20" fill="#ffffff" stroke="#dbe3ef"/>
  <text x="100" y="300" fill="#0f172a" font-family="Inter, Arial, sans-serif" font-size="16" font-weight="800">Evolucion de ejecucion</text>
  <path d="M104 386h292" stroke="#e2e8f0" stroke-width="2"/>
  <rect x="118" y="342" width="30" height="44" rx="8" fill="#bfdbfe"/>
  <rect x="168" y="318" width="30" height="68" rx="8" fill="#93c5fd"/>
  <rect x="218" y="330" width="30" height="56" rx="8" fill="#60a5fa"/>
  <rect x="268" y="296" width="30" height="90" rx="8" fill="#2563eb"/>
  <rect x="318" y="310" width="30" height="76" rx="8" fill="#1d4ed8"/>
  <path d="M118 350c44 24 78 20 116-10 38-30 72-26 116-2" fill="none" stroke="#16a34a" stroke-width="4" stroke-linecap="round"/>

  <rect x="462" y="264" width="186" height="164" rx="20" fill="#f8fafc" stroke="#dbe3ef"/>
  <text x="490" y="300" fill="#0f172a" font-family="Inter, Arial, sans-serif" font-size="16" font-weight="800">Informe</text>
  <rect x="490" y="326" width="118" height="10" rx="5" fill="#cbd5e1"/>
  <rect x="490" y="352" width="96" height="10" rx="5" fill="#cbd5e1"/>
  <rect x="490" y="378" width="126" height="10" rx="5" fill="#cbd5e1"/>
  <rect x="490" y="406" width="84" height="24" rx="12" fill="#dbeafe"/>
  <text x="510" y="423" fill="#1d4ed8" font-family="Inter, Arial, sans-serif" font-size="11" font-weight="800">Compartir</text>
</svg>
